<svg version="1.1" id="Layer_1" xmlns="http://www.w3.org/2000/svg" xmlns:xlink="http://www.w3.org/1999/xlink" x="0px" y="0px"
	 width="100%" viewBox="0 0 512 512" enable-background="new 0 0 512 512" xml:space="preserve">
<path fill="#FFFFFF" opacity="1.000000" stroke="none" 
	d="
M223.000000,513.000000 
	C149.031128,513.000000 75.062271,513.000000 1.046703,513.000000 
	C1.046703,342.436279 1.046703,171.872559 1.046703,1.000000 
	C101.354553,1.000000 201.709427,1.000000 302.416504,1.365154 
	C299.052948,4.455612 302.180389,7.760390 301.982269,10.786611 
	C301.359833,20.293726 301.793701,30.051842 299.716705,39.237514 
	C296.890656,51.735703 292.665131,64.249359 282.369659,72.967361 
	C272.428314,81.385513 261.814514,89.005096 251.596359,97.101974 
	C239.430817,106.741959 226.995300,116.093239 215.413712,126.397888 
	C208.861771,132.227448 203.252151,139.340485 198.168030,146.545700 
	C189.321411,159.083145 182.834930,172.795609 184.082565,188.700134 
	C185.338989,204.716614 191.363510,219.173584 200.071136,232.560226 
	C209.568771,247.161423 221.604355,259.559357 234.084015,271.558319 
	C236.447113,273.830383 238.794678,276.313293 241.611206,277.855652 
	C243.755981,279.030151 247.072083,279.912170 249.082214,279.064087 
	C252.297409,277.707611 251.202011,274.430206 249.958908,271.764435 
	C248.108688,267.796631 246.012604,263.923462 244.448578,259.846069 
	C240.170471,248.693054 235.450989,237.645386 232.160507,226.195587 
	C228.904190,214.864700 227.300140,203.066971 224.743668,191.524445 
	C222.759689,182.566711 224.813065,174.652740 230.713394,167.902100 
	C235.014175,162.981522 239.685577,158.326431 244.587128,154.001038 
	C256.273682,143.688202 268.235107,133.687637 280.010254,123.474167 
	C294.824371,110.624756 309.258179,97.379692 317.452087,79.005829 
	C323.792328,64.788666 325.638275,50.051704 322.364655,34.606869 
	C319.814240,22.573950 315.412384,11.424040 309.000000,1.000000 
	C376.967468,1.000000 444.934937,1.000000 512.951172,1.000000 
	C512.951172,171.552460 512.951172,342.104919 512.951172,513.000000 
	C448.312317,513.000000 383.623993,513.000000 318.685974,512.658325 
	C337.342377,509.882935 356.288879,507.722290 375.143097,504.937286 
	C393.335571,502.250061 410.902405,497.406921 425.863281,485.996246 
	C433.314240,480.313324 439.826874,473.660919 442.212402,464.219208 
	C442.717712,462.219116 442.067474,458.946564 440.672668,457.754578 
	C439.539917,456.786530 436.340332,457.667145 434.342468,458.452881 
	C432.592041,459.141266 431.282318,460.896973 429.702332,462.080292 
	C414.910980,473.158417 397.594757,478.732056 380.224976,483.683838 
	C354.200378,491.102997 327.209045,492.242432 300.396088,492.801727 
	C262.766449,493.586700 225.108215,493.001343 187.462204,492.995148 
	C185.964706,492.994904 184.465714,492.953735 182.969955,492.880219 
	C170.420547,492.263397 157.875351,491.531891 145.319870,491.091949 
	C142.664276,490.998932 140.169052,491.930298 139.937424,495.578949 
	C139.715103,499.080688 141.652374,500.401672 144.490143,500.933624 
	C150.780304,502.112762 157.071091,503.353119 163.411880,504.185608 
	C181.495407,506.559784 199.608948,508.704987 217.695343,511.058075 
	C219.516937,511.295105 221.234268,512.333496 223.000000,513.000000 
M158.603333,373.054993 
	C159.200729,373.105652 159.798126,373.156311 160.711090,373.902466 
	C163.472305,374.880920 166.233536,375.859375 169.759949,377.141266 
	C188.812241,383.030029 208.487762,384.546478 228.237091,384.863312 
	C237.097275,385.005463 245.989929,383.767365 254.852036,382.978149 
	C265.171906,382.059113 275.577942,381.544708 285.761902,379.785522 
	C303.990875,376.636536 322.102417,372.785339 340.205170,368.954376 
	C342.610626,368.445343 344.678253,366.339752 346.902283,364.973541 
	C345.461029,362.736023 344.443939,359.988983 342.492462,358.364349 
	C338.087219,354.696930 333.432190,351.211945 328.463226,348.382477 
	C325.367920,346.619873 321.514099,346.189423 317.429260,345.206207 
	C316.955017,345.525391 316.480743,345.844543 315.341064,346.052673 
	C314.894257,346.088806 314.447479,346.124939 313.429260,346.206207 
	C312.954987,346.525391 312.480743,346.844543 311.259613,347.044128 
	C310.506622,347.083130 309.753662,347.122131 308.429260,347.206207 
	C307.954987,347.525360 307.480743,347.844543 306.259613,348.044128 
	C305.506622,348.083099 304.753662,348.122101 303.429260,348.206207 
	C302.955017,348.525391 302.480743,348.844543 301.259613,349.044098 
	C300.506622,349.083099 299.753662,349.122101 298.429260,349.206207 
	C297.954987,349.525360 297.480743,349.844543 296.210632,350.042572 
	C295.140656,350.082092 294.070648,350.121613 292.429260,350.206207 
	C291.954987,350.525360 291.480713,350.844513 290.210632,351.042603 
	C289.140656,351.082092 288.070648,351.121613 286.429260,351.206207 
	C285.954987,351.525360 285.480743,351.844543 284.177917,352.042145 
	C282.785492,352.081787 281.393097,352.121429 279.429260,352.206207 
	C278.954987,352.525360 278.480743,352.844543 277.154724,353.041962 
	C275.436707,353.081665 273.718689,353.121368 271.429260,353.206177 
	C270.954987,353.525360 270.480713,353.844513 269.136932,354.041779 
	C267.091522,354.081573 265.046082,354.121338 262.429291,354.206238 
	C261.955017,354.525391 261.480743,354.844543 260.104248,355.041290 
	C257.069733,355.081207 254.035202,355.121155 250.429276,355.206268 
	C249.954971,355.525421 249.480667,355.844574 248.075684,356.040314 
	C241.779358,356.026886 235.480438,355.890686 229.187195,356.023468 
	C211.716873,356.392059 194.338074,355.628571 177.202499,351.933929 
	C175.094986,351.479553 172.021805,351.702240 172.647934,347.807434 
	C173.635620,346.944702 174.623291,346.081970 176.340271,345.468689 
	C180.236954,342.307953 180.125366,339.072113 175.724609,336.373505 
	C174.818420,336.636932 173.912216,336.900360 172.340637,337.052673 
	C171.893829,337.088531 171.447006,337.124420 170.297821,337.300781 
	C167.867493,338.255127 165.437164,339.209473 162.341217,340.052704 
	C161.894272,340.088593 161.447311,340.124481 160.316879,340.287231 
	C156.508392,342.511383 152.699921,344.735535 148.284760,347.264893 
	C146.854935,349.016724 145.070602,350.586273 144.059235,352.553284 
	C140.472672,359.528625 145.735275,368.204651 155.237396,371.678802 
	C156.157425,372.065033 157.077438,372.451263 158.603333,373.054993 
M281.801666,486.025269 
	C298.351501,484.369202 314.924927,482.917084 331.445374,481.006897 
	C353.541290,478.452087 375.241119,473.912872 396.080261,465.985199 
	C404.036621,462.958435 412.213318,460.146851 418.200592,453.374329 
	C424.736908,445.980774 422.182739,433.171204 413.058014,429.680389 
	C411.618744,429.129791 409.225067,429.332428 408.090637,430.225647 
	C406.997650,431.086273 406.047455,433.807556 406.617462,434.821472 
	C409.732880,440.363037 405.503967,441.789368 402.036713,442.812042 
	C390.873901,446.104645 379.740753,449.988556 368.304260,451.763275 
	C342.482269,455.770386 316.530701,459.079224 290.542267,461.824188 
	C275.583649,463.404114 260.454376,463.739014 245.394547,463.888550 
	C229.289520,464.048462 213.174332,463.387390 197.066727,462.964508 
	C191.950577,462.830200 186.819321,462.525330 181.738541,461.927826 
	C165.734680,460.045837 149.700531,458.319458 133.779800,455.871490 
	C124.482857,454.441956 115.380013,451.750183 106.189850,449.626251 
	C107.403908,447.518402 108.408920,446.564606 109.593803,446.207214 
	C121.045876,442.753052 132.475739,439.201508 144.033096,436.134308 
	C147.596680,435.188599 150.695358,434.648590 149.949402,430.097229 
	C149.190231,425.465271 145.488220,425.824280 142.190628,426.124359 
	C132.683990,426.989441 123.174568,427.876190 113.700607,429.035278 
	C100.796448,430.614044 88.153641,432.829773 76.208839,438.743561 
	C65.717285,443.937836 64.623741,454.653595 69.925293,462.811981 
	C73.631470,468.515381 79.361183,471.354614 85.303802,473.986206 
	C98.872932,479.995178 113.466377,481.993164 127.900253,483.759644 
	C146.232239,486.003204 164.747238,487.562592 183.203812,487.795776 
	C214.636368,488.192902 246.084991,487.334167 277.526276,486.954803 
	C278.642761,486.941345 279.753021,486.413940 281.801666,486.025269 
M228.012299,306.095734 
	C224.962158,306.063904 221.909302,306.103455 218.862305,305.988434 
	C201.813400,305.344940 184.758743,304.800751 167.722504,303.908539 
	C162.921143,303.657074 158.175171,302.348175 151.933640,301.270447 
	C155.258636,299.322144 157.065674,297.788330 159.150055,297.121460 
	C170.072464,293.627075 181.056198,290.322540 192.039062,287.020020 
	C195.173996,286.077332 198.311890,285.170502 197.949188,281.006805 
	C197.580444,276.773651 194.349777,276.806854 191.269608,277.017426 
	C177.108276,277.985626 162.878250,278.436401 148.815674,280.207031 
	C137.617325,281.617065 126.471245,284.014893 116.395096,289.830414 
	C105.608803,296.055878 103.804756,307.323547 112.601959,316.068268 
	C119.280869,322.707306 127.984528,325.459351 136.717148,327.960480 
	C161.096268,334.942841 186.287918,334.634613 211.280609,335.902832 
	C217.523026,336.219604 223.825302,335.308075 230.102234,335.006531 
	C237.542343,334.649109 244.982468,334.268066 252.426758,334.025543 
	C270.597198,333.433594 288.380981,330.301971 305.988556,325.995697 
	C324.291382,321.519409 341.951813,315.484070 357.749939,304.837646 
	C360.648193,302.884460 362.236237,300.116638 360.369843,297.435272 
	C359.283234,295.874207 355.751465,295.081177 353.524261,295.394653 
	C334.511902,298.070709 315.620239,301.789642 296.544464,303.773315 
	C280.103485,305.483032 263.470886,305.391205 246.918549,305.967438 
	C240.928162,306.176025 234.924820,306.011871 228.012299,306.095734 
M309.503326,125.997643 
	C297.381531,134.129471 284.842316,141.716812 273.281433,150.580246 
	C265.275360,156.718292 259.178833,164.902679 254.757431,174.349380 
	C250.868393,182.658661 250.908096,190.878647 251.877197,199.640839 
	C253.055176,210.291580 255.548904,220.462204 261.189911,229.533401 
	C265.728394,236.831635 270.792053,243.861816 276.202271,250.541534 
	C280.843719,256.272095 283.458862,262.496185 281.828857,269.577454 
	C280.170746,276.781006 277.104645,283.650970 275.181702,290.808472 
	C274.564819,293.104767 275.623627,295.851257 275.915771,298.391754 
	C278.347229,298.013885 281.408722,298.445129 283.105499,297.123810 
	C292.477844,289.825500 300.913055,281.544769 307.190704,271.304535 
	C315.109619,258.387085 318.301361,244.472260 312.376648,230.248108 
	C308.063171,219.892181 301.752136,210.340942 296.031799,200.607162 
	C291.628052,193.113678 288.809937,185.250504 292.686859,177.059219 
	C295.637238,170.825546 299.537262,164.775024 304.138184,159.651855 
	C310.871857,152.153809 318.403503,145.323685 325.976288,138.640884 
	C334.439087,131.172699 343.203827,124.028572 352.098389,117.077660 
	C355.211975,114.644424 357.585754,111.759979 355.375153,108.585739 
	C354.370880,107.143753 349.465424,107.111954 347.081390,108.156433 
	C334.602051,113.623802 322.363831,119.641411 309.503326,125.997643 
M192.056534,434.536316 
	C213.354645,438.721130 234.871658,440.682861 256.547668,439.893463 
	C267.388611,439.498688 278.409119,439.010223 288.955383,436.739075 
	C304.292114,433.436310 319.305237,428.590271 334.365784,424.098541 
	C336.184174,423.556244 338.529419,421.211639 338.656158,419.551575 
	C338.787659,417.829193 336.904419,415.367584 335.226440,414.204010 
	C330.506317,410.931030 325.049713,408.645782 320.593018,405.083435 
	C312.572784,398.672760 304.280731,398.430328 294.640961,400.708893 
	C283.499084,403.342560 272.012115,405.133179 260.587067,405.814026 
	C241.239456,406.966919 221.871307,405.895660 202.677872,402.912537 
	C198.414963,402.249969 194.259064,400.898865 189.866165,399.818634 
	C193.337616,393.526489 191.411667,389.421906 185.492004,390.156921 
	C178.235214,391.057983 171.202682,392.615540 164.488815,396.474731 
	C156.887207,400.844238 156.213898,414.613800 161.774963,420.462616 
	C169.931976,429.041534 180.516434,431.636414 192.056534,434.536316 
M384.439331,273.975159 
	C379.984619,275.643219 375.559387,277.396545 371.065094,278.950134 
	C367.941986,280.029755 365.793427,282.175720 367.243835,285.176636 
	C368.118530,286.986328 370.993866,288.361267 373.218109,288.891479 
	C381.482056,290.861145 390.269928,291.314148 398.081970,294.344910 
	C411.036011,299.370544 418.371582,309.600525 409.715118,324.442322 
	C406.999237,329.098816 403.541901,333.406769 399.948456,337.451843 
	C388.898102,349.891022 375.861847,360.073700 362.527618,369.924835 
	C360.924469,371.109161 359.209442,374.176910 359.687775,375.698578 
	C360.548462,378.436646 363.294281,379.611206 366.631134,378.728455 
	C388.219543,373.017334 409.279266,366.007355 427.064758,351.911407 
	C442.873779,339.381866 450.619141,324.599915 445.840637,304.208466 
	C442.147980,288.450745 434.223358,275.930725 417.214691,271.623505 
	C406.306213,268.861053 395.692841,270.117065 384.439331,273.975159 
z"/>
<path fill="#DB380E" opacity="1.000000" stroke="none" 
	d="
M308.571533,1.000000 
	C315.412384,11.424040 319.814240,22.573950 322.364655,34.606869 
	C325.638275,50.051704 323.792328,64.788666 317.452087,79.005829 
	C309.258179,97.379692 294.824371,110.624756 280.010254,123.474167 
	C268.235107,133.687637 256.273682,143.688202 244.587128,154.001038 
	C239.685577,158.326431 235.014175,162.981522 230.713394,167.902100 
	C224.813065,174.652740 222.759689,182.566711 224.743668,191.524445 
	C227.300140,203.066971 228.904190,214.864700 232.160507,226.195587 
	C235.450989,237.645386 240.170471,248.693054 244.448578,259.846069 
	C246.012604,263.923462 248.108688,267.796631 249.958908,271.764435 
	C251.202011,274.430206 252.297409,277.707611 249.082214,279.064087 
	C247.072083,279.912170 243.755981,279.030151 241.611206,277.855652 
	C238.794678,276.313293 236.447113,273.830383 234.084015,271.558319 
	C221.604355,259.559357 209.568771,247.161423 200.071136,232.560226 
	C191.363510,219.173584 185.338989,204.716614 184.082565,188.700134 
	C182.834930,172.795609 189.321411,159.083145 198.168030,146.545700 
	C203.252151,139.340485 208.861771,132.227448 215.413712,126.397888 
	C226.995300,116.093239 239.430817,106.741959 251.596359,97.101974 
	C261.814514,89.005096 272.428314,81.385513 282.369659,72.967361 
	C292.665131,64.249359 296.890656,51.735703 299.716705,39.237514 
	C301.793701,30.051842 301.359833,20.293726 301.982269,10.786611 
	C302.180389,7.760390 299.052948,4.455612 302.884338,1.365154 
	C304.714355,1.000000 306.428711,1.000000 308.571533,1.000000 
z"/>
<path fill="#73A1FB" opacity="1.000000" stroke="none" 
	d="
M223.468658,513.000000 
	C221.234268,512.333496 219.516937,511.295105 217.695343,511.058075 
	C199.608948,508.704987 181.495407,506.559784 163.411880,504.185608 
	C157.071091,503.353119 150.780304,502.112762 144.490143,500.933624 
	C141.652374,500.401672 139.715103,499.080688 139.937424,495.578949 
	C140.169052,491.930298 142.664276,490.998932 145.319870,491.091949 
	C157.875351,491.531891 170.420547,492.263397 182.969955,492.880219 
	C184.465714,492.953735 185.964706,492.994904 187.462204,492.995148 
	C225.108215,493.001343 262.766449,493.586700 300.396088,492.801727 
	C327.209045,492.242432 354.200378,491.102997 380.224976,483.683838 
	C397.594757,478.732056 414.910980,473.158417 429.702332,462.080292 
	C431.282318,460.896973 432.592041,459.141266 434.342468,458.452881 
	C436.340332,457.667145 439.539917,456.786530 440.672668,457.754578 
	C442.067474,458.946564 442.717712,462.219116 442.212402,464.219208 
	C439.826874,473.660919 433.314240,480.313324 425.863281,485.996246 
	C410.902405,497.406921 393.335571,502.250061 375.143097,504.937286 
	C356.288879,507.722290 337.342377,509.882935 318.218140,512.658325 
	C286.645782,513.000000 255.291550,513.000000 223.468658,513.000000 
z"/>
<path fill="#73A1FB" opacity="1.000000" stroke="none" 
	d="
M281.333923,486.075684 
	C279.753021,486.413940 278.642761,486.941345 277.526276,486.954803 
	C246.084991,487.334167 214.636368,488.192902 183.203812,487.795776 
	C164.747238,487.562592 146.232239,486.003204 127.900253,483.759644 
	C113.466377,481.993164 98.872932,479.995178 85.303802,473.986206 
	C79.361183,471.354614 73.631470,468.515381 69.925293,462.811981 
	C64.623741,454.653595 65.717285,443.937836 76.208839,438.743561 
	C88.153641,432.829773 100.796448,430.614044 113.700607,429.035278 
	C123.174568,427.876190 132.683990,426.989441 142.190628,426.124359 
	C145.488220,425.824280 149.190231,425.465271 149.949402,430.097229 
	C150.695358,434.648590 147.596680,435.188599 144.033096,436.134308 
	C132.475739,439.201508 121.045876,442.753052 109.593803,446.207214 
	C108.408920,446.564606 107.403908,447.518402 106.189850,449.626251 
	C115.380013,451.750183 124.482857,454.441956 133.779800,455.871490 
	C149.700531,458.319458 165.734680,460.045837 181.738541,461.927826 
	C186.819321,462.525330 191.950577,462.830200 197.066727,462.964508 
	C213.174332,463.387390 229.289520,464.048462 245.394547,463.888550 
	C260.454376,463.739014 275.583649,463.404114 290.542267,461.824188 
	C316.530701,459.079224 342.482269,455.770386 368.304260,451.763275 
	C379.740753,449.988556 390.873901,446.104645 402.036713,442.812042 
	C405.503967,441.789368 409.732880,440.363037 406.617462,434.821472 
	C406.047455,433.807556 406.997650,431.086273 408.090637,430.225647 
	C409.225067,429.332428 411.618744,429.129791 413.058014,429.680389 
	C422.182739,433.171204 424.736908,445.980774 418.200592,453.374329 
	C412.213318,460.146851 404.036621,462.958435 396.080261,465.985199 
	C375.241119,473.912872 353.541290,478.452087 331.445374,481.006897 
	C314.924927,482.917084 298.351501,484.369202 281.333923,486.075684 
z"/>
<path fill="#73A1FB" opacity="1.000000" stroke="none" 
	d="
M228.469849,306.056763 
	C234.924820,306.011871 240.928162,306.176025 246.918549,305.967438 
	C263.470886,305.391205 280.103485,305.483032 296.544464,303.773315 
	C315.620239,301.789642 334.511902,298.070709 353.524261,295.394653 
	C355.751465,295.081177 359.283234,295.874207 360.369843,297.435272 
	C362.236237,300.116638 360.648193,302.884460 357.749939,304.837646 
	C341.951813,315.484070 324.291382,321.519409 305.988556,325.995697 
	C288.380981,330.301971 270.597198,333.433594 252.426758,334.025543 
	C244.982468,334.268066 237.542343,334.649109 230.102234,335.006531 
	C223.825302,335.308075 217.523026,336.219604 211.280609,335.902832 
	C186.287918,334.634613 161.096268,334.942841 136.717148,327.960480 
	C127.984528,325.459351 119.280869,322.707306 112.601959,316.068268 
	C103.804756,307.323547 105.608803,296.055878 116.395096,289.830414 
	C126.471245,284.014893 137.617325,281.617065 148.815674,280.207031 
	C162.878250,278.436401 177.108276,277.985626 191.269608,277.017426 
	C194.349777,276.806854 197.580444,276.773651 197.949188,281.006805 
	C198.311890,285.170502 195.173996,286.077332 192.039062,287.020020 
	C181.056198,290.322540 170.072464,293.627075 159.150055,297.121460 
	C157.065674,297.788330 155.258636,299.322144 151.933640,301.270447 
	C158.175171,302.348175 162.921143,303.657074 167.722504,303.908539 
	C184.758743,304.800751 201.813400,305.344940 218.862305,305.988434 
	C221.909302,306.103455 224.962158,306.063904 228.469849,306.056763 
z"/>
<path fill="#DB380E" opacity="1.000000" stroke="none" 
	d="
M309.772552,125.732697 
	C322.363831,119.641411 334.602051,113.623802 347.081390,108.156433 
	C349.465424,107.111954 354.370880,107.143753 355.375153,108.585739 
	C357.585754,111.759979 355.211975,114.644424 352.098389,117.077660 
	C343.203827,124.028572 334.439087,131.172699 325.976288,138.640884 
	C318.403503,145.323685 310.871857,152.153809 304.138184,159.651855 
	C299.537262,164.775024 295.637238,170.825546 292.686859,177.059219 
	C288.809937,185.250504 291.628052,193.113678 296.031799,200.607162 
	C301.752136,210.340942 308.063171,219.892181 312.376648,230.248108 
	C318.301361,244.472260 315.109619,258.387085 307.190704,271.304535 
	C300.913055,281.544769 292.477844,289.825500 283.105499,297.123810 
	C281.408722,298.445129 278.347229,298.013885 275.915771,298.391754 
	C275.623627,295.851257 274.564819,293.104767 275.181702,290.808472 
	C277.104645,283.650970 280.170746,276.781006 281.828857,269.577454 
	C283.458862,262.496185 280.843719,256.272095 276.202271,250.541534 
	C270.792053,243.861816 265.728394,236.831635 261.189911,229.533401 
	C255.548904,220.462204 253.055176,210.291580 251.877197,199.640839 
	C250.908096,190.878647 250.868393,182.658661 254.757431,174.349380 
	C259.178833,164.902679 265.275360,156.718292 273.281433,150.580246 
	C284.842316,141.716812 297.381531,134.129471 309.772552,125.732697 
z"/>
<path fill="#73A1FB" opacity="1.000000" stroke="none" 
	d="
M191.678528,434.341003 
	C180.516434,431.636414 169.931976,429.041534 161.774963,420.462616 
	C156.213898,414.613800 156.887207,400.844238 164.488815,396.474731 
	C171.202682,392.615540 178.235214,391.057983 185.492004,390.156921 
	C191.411667,389.421906 193.337616,393.526489 189.866165,399.818634 
	C194.259064,400.898865 198.414963,402.249969 202.677872,402.912537 
	C221.871307,405.895660 241.239456,406.966919 260.587067,405.814026 
	C272.012115,405.133179 283.499084,403.342560 294.640961,400.708893 
	C304.280731,398.430328 312.572784,398.672760 320.593018,405.083435 
	C325.049713,408.645782 330.506317,410.931030 335.226440,414.204010 
	C336.904419,415.367584 338.787659,417.829193 338.656158,419.551575 
	C338.529419,421.211639 336.184174,423.556244 334.365784,424.098541 
	C319.305237,428.590271 304.292114,433.436310 288.955383,436.739075 
	C278.409119,439.010223 267.388611,439.498688 256.547668,439.893463 
	C234.871658,440.682861 213.354645,438.721130 191.678528,434.341003 
z"/>
<path fill="#73A1FB" opacity="1.000000" stroke="none" 
	d="
M287.000671,351.161133 
	C288.070648,351.121613 289.140656,351.082092 290.660339,351.398560 
	C291.576294,351.973328 292.042572,352.192139 292.508850,352.410950 
	C292.672791,351.660980 292.836731,350.911041 293.000671,350.161102 
	C294.070648,350.121613 295.140656,350.082092 296.660339,350.398529 
	C297.576324,350.973297 298.042603,351.192108 298.508850,351.410889 
	C298.672791,350.660980 298.836731,349.911041 299.000671,349.161072 
	C299.753662,349.122101 300.506622,349.083099 301.684814,349.399292 
	C302.576324,349.973328 303.042572,350.192108 303.508850,350.410919 
	C303.672760,349.660980 303.836700,348.911041 304.000671,348.161102 
	C304.753662,348.122101 305.506622,348.083099 306.684814,348.399323 
	C307.576324,348.973328 308.042572,349.192108 308.508850,349.410919 
	C308.672791,348.660980 308.836731,347.911041 309.000671,347.161102 
	C309.753662,347.122131 310.506622,347.083130 311.684814,347.399323 
	C312.576324,347.973328 313.042572,348.192139 313.508850,348.410919 
	C313.672791,347.660980 313.836731,346.911041 314.000671,346.161072 
	C314.447479,346.124939 314.894257,346.088806 315.725555,346.403595 
	C316.576324,346.973297 317.042572,347.192108 317.508850,347.410919 
	C317.672791,346.660980 317.836731,345.911041 318.000671,345.161102 
	C321.514099,346.189423 325.367920,346.619873 328.463226,348.382477 
	C333.432190,351.211945 338.087219,354.696930 342.492462,358.364349 
	C344.443939,359.988983 345.461029,362.736023 346.902283,364.973541 
	C344.678253,366.339752 342.610626,368.445343 340.205170,368.954376 
	C322.102417,372.785339 303.990875,376.636536 285.761902,379.785522 
	C275.577942,381.544708 265.171906,382.059113 254.852036,382.978149 
	C245.989929,383.767365 237.097275,385.005463 228.237091,384.863312 
	C208.487762,384.546478 188.812241,383.030029 169.304688,376.646149 
	C166.031464,375.169678 163.213486,374.188324 160.395523,373.206970 
	C159.798126,373.156311 159.200729,373.105652 158.262878,372.631409 
	C156.932220,371.839417 155.941986,371.471039 154.951752,371.102661 
	C145.735275,368.204651 140.472672,359.528625 144.059235,352.553284 
	C145.070602,350.586273 146.854935,349.016724 148.990265,347.124329 
	C154.208420,345.942627 159.106674,345.540344 161.000366,340.160339 
	C161.447311,340.124481 161.894272,340.088593 162.737015,340.428833 
	C166.554382,341.315033 169.924423,341.713837 171.000198,337.160278 
	C171.447006,337.124420 171.893829,337.088531 172.720276,337.404541 
	C174.081482,337.469025 175.063049,337.181671 176.044601,336.894287 
	C180.125366,339.072113 180.236954,342.307953 175.550644,345.286621 
	C173.854111,346.105896 172.947220,347.107239 172.040314,348.108582 
	C172.021805,351.702240 175.094986,351.479553 177.202499,351.933929 
	C194.338074,355.628571 211.716873,356.392059 229.187195,356.023468 
	C235.480438,355.890686 241.779358,356.026886 248.592819,356.397400 
	C249.576248,356.973358 250.042542,357.192169 250.508850,357.410980 
	C250.672791,356.661011 250.836731,355.911072 251.000687,355.161102 
	C254.035202,355.121155 257.069733,355.081207 260.607147,355.397888 
	C261.576324,355.973328 262.042572,356.192108 262.508850,356.410919 
	C262.672791,355.660980 262.836731,354.911041 263.000671,354.161102 
	C265.046082,354.121338 267.091522,354.081573 269.623474,354.398132 
	C270.576294,354.973328 271.042572,355.192139 271.508850,355.410919 
	C271.672760,354.660980 271.836700,353.911041 272.000671,353.161072 
	C273.718689,353.121368 275.436707,353.081665 277.632385,353.398254 
	C278.576324,353.973297 279.042572,354.192108 279.508850,354.410919 
	C279.672791,353.660980 279.836731,352.911041 280.000671,352.161102 
	C281.393097,352.121429 282.785492,352.081787 284.643982,352.398315 
	C285.576324,352.973328 286.042572,353.192108 286.508850,353.410919 
	C286.672791,352.660980 286.836731,351.911041 287.000671,351.161133 
z"/>
<path fill="#73A1FB" opacity="1.000000" stroke="none" 
	d="
M384.843964,273.922333 
	C395.692841,270.117065 406.306213,268.861053 417.214691,271.623505 
	C434.223358,275.930725 442.147980,288.450745 445.840637,304.208466 
	C450.619141,324.599915 442.873779,339.381866 427.064758,351.911407 
	C409.279266,366.007355 388.219543,373.017334 366.631134,378.728455 
	C363.294281,379.611206 360.548462,378.436646 359.687775,375.698578 
	C359.209442,374.176910 360.924469,371.109161 362.527618,369.924835 
	C375.861847,360.073700 388.898102,349.891022 399.948456,337.451843 
	C403.541901,333.406769 406.999237,329.098816 409.715118,324.442322 
	C418.371582,309.600525 411.036011,299.370544 398.081970,294.344910 
	C390.269928,291.314148 381.482056,290.861145 373.218109,288.891479 
	C370.993866,288.361267 368.118530,286.986328 367.243835,285.176636 
	C365.793427,282.175720 367.941986,280.029755 371.065094,278.950134 
	C375.559387,277.396545 379.984619,275.643219 384.843964,273.922333 
z"/>
<path fill="#73A1FB" opacity="1.000000" stroke="none" 
	d="
M160.658630,340.223785 
	C159.106674,345.540344 154.208420,345.942627 149.293610,346.971741 
	C152.699921,344.735535 156.508392,342.511383 160.658630,340.223785 
z"/>
<path fill="#73A1FB" opacity="1.000000" stroke="none" 
	d="
M170.649017,337.230530 
	C169.924423,341.713837 166.554382,341.315033 163.069824,340.484375 
	C165.437164,339.209473 167.867493,338.255127 170.649017,337.230530 
z"/>
<path fill="#73A1FB" opacity="1.000000" stroke="none" 
	d="
M160.553314,373.554718 
	C163.213486,374.188324 166.031464,375.169678 168.922089,376.494446 
	C166.233536,375.859375 163.472305,374.880920 160.553314,373.554718 
z"/>
<path fill="#73A1FB" opacity="1.000000" stroke="none" 
	d="
M172.344131,347.958008 
	C172.947220,347.107239 173.854111,346.105896 175.186005,345.161865 
	C174.623291,346.081970 173.635620,346.944702 172.344131,347.958008 
z"/>
<path fill="#73A1FB" opacity="1.000000" stroke="none" 
	d="
M175.884613,336.633911 
	C175.063049,337.181671 174.081482,337.469025 173.052979,337.460083 
	C173.912216,336.900360 174.818420,336.636932 175.884613,336.633911 
z"/>
<path fill="#73A1FB" opacity="1.000000" stroke="none" 
	d="
M155.094574,371.390747 
	C155.941986,371.471039 156.932220,371.839417 157.959961,372.522644 
	C157.077438,372.451263 156.157425,372.065033 155.094574,371.390747 
z"/>
<path fill="#73A1FB" opacity="1.000000" stroke="none" 
	d="
M292.714966,350.183655 
	C292.836731,350.911041 292.672791,351.660980 292.508850,352.410950 
	C292.042572,352.192139 291.576294,351.973328 291.058258,351.459106 
	C291.480713,350.844513 291.954987,350.525360 292.714966,350.183655 
z"/>
<path fill="#73A1FB" opacity="1.000000" stroke="none" 
	d="
M286.714966,351.183655 
	C286.836731,351.911041 286.672791,352.660980 286.508850,353.410919 
	C286.042572,353.192108 285.576324,352.973328 285.058258,352.459106 
	C285.480743,351.844543 285.954987,351.525360 286.714966,351.183655 
z"/>
<path fill="#73A1FB" opacity="1.000000" stroke="none" 
	d="
M279.714966,352.183655 
	C279.836731,352.911041 279.672791,353.660980 279.508850,354.410919 
	C279.042572,354.192108 278.576324,353.973297 278.058258,353.459106 
	C278.480743,352.844543 278.954987,352.525360 279.714966,352.183655 
z"/>
<path fill="#73A1FB" opacity="1.000000" stroke="none" 
	d="
M271.714966,353.183655 
	C271.836700,353.911041 271.672760,354.660980 271.508850,355.410919 
	C271.042572,355.192139 270.576294,354.973328 270.058258,354.459106 
	C270.480713,353.844513 270.954987,353.525360 271.714966,353.183655 
z"/>
<path fill="#73A1FB" opacity="1.000000" stroke="none" 
	d="
M262.714966,354.183655 
	C262.836731,354.911041 262.672791,355.660980 262.508850,356.410919 
	C262.042572,356.192108 261.576324,355.973328 261.058289,355.459106 
	C261.480743,354.844543 261.955017,354.525391 262.714966,354.183655 
z"/>
<path fill="#73A1FB" opacity="1.000000" stroke="none" 
	d="
M250.714981,355.183685 
	C250.836731,355.911072 250.672791,356.661011 250.508850,357.410980 
	C250.042542,357.192169 249.576248,356.973358 249.058151,356.459106 
	C249.480667,355.844574 249.954971,355.525421 250.714981,355.183685 
z"/>
<path fill="#73A1FB" opacity="1.000000" stroke="none" 
	d="
M298.714966,349.183655 
	C298.836731,349.911041 298.672791,350.660980 298.508850,351.410889 
	C298.042603,351.192108 297.576324,350.973297 297.058258,350.459106 
	C297.480743,349.844543 297.954987,349.525360 298.714966,349.183655 
z"/>
<path fill="#73A1FB" opacity="1.000000" stroke="none" 
	d="
M303.714966,348.183655 
	C303.836700,348.911041 303.672760,349.660980 303.508850,350.410919 
	C303.042572,350.192108 302.576324,349.973328 302.058258,349.459106 
	C302.480743,348.844543 302.955017,348.525391 303.714966,348.183655 
z"/>
<path fill="#73A1FB" opacity="1.000000" stroke="none" 
	d="
M308.714966,347.183655 
	C308.836731,347.911041 308.672791,348.660980 308.508850,349.410919 
	C308.042572,349.192108 307.576324,348.973328 307.058258,348.459106 
	C307.480743,347.844543 307.954987,347.525360 308.714966,347.183655 
z"/>
<path fill="#73A1FB" opacity="1.000000" stroke="none" 
	d="
M313.714966,346.183655 
	C313.836731,346.911041 313.672791,347.660980 313.508850,348.410919 
	C313.042572,348.192139 312.576324,347.973328 312.058258,347.459106 
	C312.480743,346.844543 312.954987,346.525391 313.714966,346.183655 
z"/>
<path fill="#73A1FB" opacity="1.000000" stroke="none" 
	d="
M317.714966,345.183655 
	C317.836731,345.911041 317.672791,346.660980 317.508850,347.410919 
	C317.042572,347.192108 316.576324,346.973297 316.058258,346.459106 
	C316.480743,345.844543 316.955017,345.525391 317.714966,345.183655 
z"/>
</svg>