<?xml version="1.0" encoding="UTF-8"?>
<svg version="1.1" xmlns="http://www.w3.org/2000/svg" width="640" height="462">
<path d="M0 0 C211.2 0 422.4 0 640 0 C640 152.46 640 304.92 640 462 C428.8 462 217.6 462 0 462 C0 309.54 0 157.08 0 0 Z " fill="#000000" transform="translate(0,0)"/>
<path d="M0 0 C21.05302604 -0.11673559 42.10599881 -0.20494025 63.15928268 -0.25906086 C72.93442342 -0.28485653 82.70936322 -0.32003304 92.484375 -0.37719727 C101.00302043 -0.42699057 109.52152037 -0.4592811 118.04030728 -0.47044247 C122.55216813 -0.47696817 127.06361269 -0.49233341 131.57534027 -0.52865028 C135.82056065 -0.56254562 140.06519259 -0.57306619 144.31053543 -0.56553841 C145.86984325 -0.56691587 147.4291704 -0.57688729 148.98836136 -0.59602737 C151.11591203 -0.62086704 153.24123443 -0.61494178 155.36883545 -0.60127258 C156.55979198 -0.60588155 157.75074852 -0.61049051 158.97779465 -0.61523914 C162 0 162 0 164.28944778 2.41257954 C164.85393002 3.26642829 165.41841225 4.12027704 166 5 C166.66 5.66 167.32 6.32 168 7 C166.989375 7.020625 165.97875 7.04125 164.9375 7.0625 C161.34649026 7.5302668 159.97698659 8.80650716 157.625 11.5 C154.60015297 14.86548295 154.60015297 14.86548295 151.734375 15.5078125 C150.18554514 15.58474114 148.6359456 15.64770133 147.0859375 15.6953125 C143.64931281 16.19729139 142.08354611 18.39556736 140 21 C138.05909174 22.94090826 134.52706098 22.39919435 131.9375 22.5625 C130.64714844 22.64628906 129.35679687 22.73007813 128.02734375 22.81640625 C127.02832031 22.87699219 126.02929688 22.93757813 125 23 C125.99 24.98 125.99 24.98 127 27 C118.57089141 36.51729269 118.57089141 36.51729269 114.80078125 37.67578125 C114.14464844 37.70027344 113.48851562 37.72476563 112.8125 37.75 C107.66923192 38.08726348 105.49496033 40.42858741 102 44 C102 42.02 102 40.04 102 38 C101.34 38 100.68 38 100 38 C100 38.66 100 39.32 100 40 C97.5 41.625 97.5 41.625 95 43 C95 41.35 95 39.7 95 38 C90.20299144 41.16392215 90.20299144 41.16392215 87.34607232 45.9578588 C87.118896 48.26561068 87.09995157 50.48944807 87.15821838 52.80783081 C87.15223741 53.68275401 87.14625644 54.55767721 87.14009422 55.45911324 C87.12858162 58.38506517 87.16702764 61.30819467 87.20532227 64.23388672 C87.20729716 66.33326654 87.20618771 68.43265119 87.20222473 70.5320282 C87.20021579 76.22819589 87.24137859 81.92333235 87.29024243 87.61926031 C87.33399318 93.57295349 87.33811291 99.52667015 87.34642029 105.48049927 C87.36817954 116.75342992 87.42562655 128.02588554 87.49586672 139.29860699 C87.57410079 152.13277577 87.61259442 164.96696721 87.64773476 177.80131507 C87.72090841 204.20114011 87.84403807 230.60054344 88 257 C89.32 257.66 90.64 258.32 92 259 C92.99 258.34 93.98 257.68 95 257 C95.01417969 258.09699219 95.02835938 259.19398438 95.04296875 260.32421875 C95.08988708 261.77868698 95.13813438 263.23311277 95.1875 264.6875 C95.19330078 265.40873047 95.19910156 266.12996094 95.20507812 266.87304688 C95.38052804 271.14232808 95.67432914 272.61448151 98.55078125 276.01953125 C99.35902344 276.67308594 100.16726563 277.32664062 101 278 C99.5398009 281.40713122 97.96277576 283.73893429 95 286 C93.02808311 286.16163253 91.05591611 286.32153266 89.08203125 286.45703125 C85.6656139 287.34799187 83.95983796 289.84256147 81.67578125 292.41015625 C79.32249453 294.6427616 77.17816894 294.92248368 74 295 C74.99 296.485 74.99 296.485 76 298 C74.36871516 299.95754181 73.50947377 300.91654334 70.94921875 301.3359375 C70.20285156 301.34882813 69.45648438 301.36171875 68.6875 301.375 C63.63988425 301.74614822 61.52932278 303.47067722 58 307 C58 305.35 58 303.7 58 302 C56.515 303.485 56.515 303.485 55 305 C55.66 306.32 56.32 307.64 57 309 C53.04 309.33 49.08 309.66 45 310 C45.825 310.61875 46.65 311.2375 47.5 311.875 C48.325 312.57625 49.15 313.2775 50 314 C50 314.66 50 315.32 50 316 C48.205625 316.061875 48.205625 316.061875 46.375 316.125 C43.13991676 316.49061109 43.13991676 316.49061109 40.58984375 318.3671875 C40.16832031 318.90601563 39.74679687 319.44484375 39.3125 320 C37.1421225 322.54122632 36.11111957 322.97897378 32.73828125 323.6171875 C29.48438047 323.84935772 26.2617365 323.99032126 23 324 C23.99 325.485 23.99 325.485 25 327 C23.5625 328.9375 23.5625 328.9375 21 331 C18.87109375 331.3125 18.87109375 331.3125 16.5 331.4375 C14.13887821 331.54091217 14.13887821 331.54091217 12 332 C9.84550034 334.40144575 9.84550034 334.40144575 8 337 C4.25 338.3125 4.25 338.3125 1 339 C1 340.32 1 341.64 1 343 C0.67 343.66 0.34 344.32 0 345 C-2.32156597 345.40729228 -4.6568787 345.74438677 -7 346 C-6.34 347.32 -5.68 348.64 -5 350 C-6.32 350.66 -7.64 351.32 -9 352 C-9.33 350.35 -9.66 348.7 -10 347 C-10.33 347.66 -10.66 348.32 -11 349 C-11.66 349 -12.32 349 -13 349 C-14.7143618 347.04072937 -16.38405168 345.04119788 -18 343 C-19.65 343.33 -21.3 343.66 -23 344 C-23 339.71 -23 335.42 -23 331 C-23.99 331.99 -24.98 332.98 -26 334 C-29.36720387 332.60667426 -30.9859524 331.0210714 -33 328 C-34.65 328.66 -36.3 329.32 -38 330 C-38.33 328.35 -38.66 326.7 -39 325 C-40.32 325.33 -41.64 325.66 -43 326 C-45.12508244 322.81237635 -45.5020163 320.73487777 -46 317 C-46.99 317.66 -47.98 318.32 -49 319 C-51 317.9375 -51 317.9375 -53 316 C-53.25 312.3125 -53.25 312.3125 -53 309 C-55.31 309 -57.62 309 -60 309 C-60.33 307.02 -60.66 305.04 -61 303 C-63.31 304.98 -65.62 306.96 -68 309 C-68.33 306.03 -68.66 303.06 -69 300 C-72.7763932 299.7018576 -72.7763932 299.7018576 -75 301 C-75.33 296.71 -75.66 292.42 -76 288 C-76.99 288.66 -77.98 289.32 -79 290 C-81.31 288.02 -83.62 286.04 -86 284 C-87.32 284.66 -88.64 285.32 -90 286 C-90.33 284.35 -90.66 282.7 -91 281 C-92.32 281 -93.64 281 -95 281 C-95 278.66666667 -95 276.33333333 -95 274 C-95.33 273.34 -95.66 272.68 -96 272 C-91.71 271.67 -87.42 271.34 -83 271 C-84.98 268.69 -86.96 266.38 -89 264 C-87.35 263.67 -85.7 263.34 -84 263 C-84.495 261.515 -84.495 261.515 -85 260 C-83.02579865 257.47740939 -82.03254358 257.0070192 -78.8125 256.3125 C-77.884375 256.209375 -76.95625 256.10625 -76 256 C-76.66 255.01 -77.32 254.02 -78 253 C-76.9375 251.5 -76.9375 251.5 -75 250 C-71.3125 249.8125 -71.3125 249.8125 -68 250 C-68.66 249.01 -69.32 248.02 -70 247 C-69.81992199 244.18628106 -69.13118891 243.13910548 -67.1875 241.078125 C-66.465625 240.47484375 -65.74375 239.8715625 -65 239.25 C-64.278125 238.63640625 -63.55625 238.0228125 -62.8125 237.390625 C-61 236 -61 236 -60 236 C-59.67 239.96 -59.34 243.92 -59 248 C-58.01 247.34 -57.02 246.68 -56 246 C-54.5 247.0625 -54.5 247.0625 -53 249 C-52.8125 252.6875 -52.8125 252.6875 -53 256 C-50.525 255.01 -50.525 255.01 -48 254 C-45.10067643 256.39509338 -44.49831724 258.31245243 -44 262 C-43.01 261.67 -42.02 261.34 -41 261 C-40.34 261.66 -39.68 262.32 -39 263 C-36.34462628 263.56520003 -33.70855287 263.73788198 -31 264 C-30.9175 265.27875 -30.835 266.5575 -30.75 267.875 C-30.54130069 270.05333418 -30.54130069 270.05333418 -30 272 C-28.07935207 273.5899433 -28.07935207 273.5899433 -26 274 C-25.01 273.34 -24.02 272.68 -23 272 C-22.83723958 274.01822917 -22.67447917 276.03645833 -22.51171875 278.0546875 C-22.12606964 280.39519216 -22.12606964 280.39519216 -19 282 C-18.01 281.34 -17.02 280.68 -16 280 C-15.67 281.65 -15.34 283.3 -15 285 C-13.02 283.35 -11.04 281.7 -9 280 C-9 282.31 -9 284.62 -9 287 C-3.70028814 287.08031773 -3.70028814 287.08031773 0.5625 284.41015625 C1.0575 283.77980469 1.5525 283.14945312 2.0625 282.5 C4.61883059 279.55544164 5.74993987 279.03666493 9.703125 278.45703125 C12.40709475 278.31197336 15.05621912 278.32846086 17.76953125 278.36328125 C21.06349704 278.37836199 21.06349704 278.37836199 22.51171875 276.10546875 C23.24529091 273.95915133 23.24529091 273.95915133 22 272 C24.31 272 26.62 272 29 272 C29 269.36 29 266.72 29 264 C31.31 264 33.62 264 36 264 C35.67 228.36 35.34 192.72 35 156 C33.02 156.99 33.02 156.99 31 158 C30.34 156.68 29.68 155.36 29 154 C30.65 153.67 32.3 153.34 34 153 C32.35 151.02 30.7 149.04 29 147 C30.98 146.67 32.96 146.34 35 146 C34.01 145.195625 33.02 144.39125 32 143.5625 C31.01 142.716875 30.02 141.87125 29 141 C29 140.67 29 140.34 29 140 C30.98 139.67 32.96 139.34 35 139 C34.01 138.21625 33.02 137.4325 32 136.625 C31.01 135.75875 30.02 134.8925 29 134 C29 133.34 29 132.68 29 132 C30.65 131.67 32.3 131.34 34 131 C32.35 129.02 30.7 127.04 29 125 C31.97 124.505 31.97 124.505 35 124 C34.01 123.195625 33.02 122.39125 32 121.5625 C31.01 120.716875 30.02 119.87125 29 119 C29 118.67 29 118.34 29 118 C31.97 117.505 31.97 117.505 35 117 C33.35 115.02 31.7 113.04 30 111 C32.475 110.505 32.475 110.505 35 110 C33.02 107.69 31.04 105.38 29 103 C31.475 102.505 31.475 102.505 34 102 C32.35 100.02 30.7 98.04 29 96 C31.97 95.505 31.97 95.505 35 95 C33.35 93.02 31.7 91.04 30 89 C31.65 89 33.3 89 35 89 C33.02 86.36 31.04 83.72 29 81 C31.475 80.505 31.475 80.505 34 80 C32.35 78.02 30.7 76.04 29 74 C31.97 73.505 31.97 73.505 35 73 C34.01 72.21625 33.02 71.4325 32 70.625 C31.01 69.75875 30.02 68.8925 29 68 C29 67.34 29 66.68 29 66 C31.475 65.505 31.475 65.505 34 65 C32.35 63.02 30.7 61.04 29 59 C31.475 58.505 31.475 58.505 34 58 C32.35 56.02 30.7 54.04 29 52 C31.97 51.505 31.97 51.505 35 51 C34.05125 50.319375 33.1025 49.63875 32.125 48.9375 C28.5622062 46.01332019 27.8726412 43.4504701 27 39 C25.02 40.65 23.04 42.3 21 44 C21 42.02 21 40.04 21 38 C18.36 39.98 15.72 41.96 13 44 C12.67 42.35 12.34 40.7 12 39 C10.02 40.65 8.04 42.3 6 44 C5.67 42.35 5.34 40.7 5 39 C3.02 40.65 1.04 42.3 -1 44 C-1 42.02 -1 40.04 -1 38 C-3.64 39.98 -6.28 41.96 -9 44 C-9.33 42.35 -9.66 40.7 -10 39 C-11.98 40.65 -13.96 42.3 -16 44 C-16.33 42.35 -16.66 40.7 -17 39 C-17.45375 39.495 -17.9075 39.99 -18.375 40.5 C-20 42 -20 42 -22 42 C-22.495 42.99 -22.495 42.99 -23 44 C-23 42.02 -23 40.04 -23 38 C-25.64 39.98 -28.28 41.96 -31 44 C-31.33 42.35 -31.66 40.7 -32 39 C-33.98 40.65 -35.96 42.3 -38 44 C-38.33 42.35 -38.66 40.7 -39 39 C-39.45375 39.495 -39.9075 39.99 -40.375 40.5 C-42 42 -42 42 -44 42 C-44.495 42.99 -44.495 42.99 -45 44 C-45 41.69 -45 39.38 -45 37 C-43.02 37 -41.04 37 -39 37 C-39.37125 36.236875 -39.7425 35.47375 -40.125 34.6875 C-40.41375 33.800625 -40.7025 32.91375 -41 32 C-40.34 31.01 -39.68 30.02 -39 29 C-38.34 29 -37.68 29 -37 29 C-36.505 31.97 -36.505 31.97 -36 35 C-34.66070495 33.71451591 -33.32871357 32.42141845 -32 31.125 C-31.2575 30.40570313 -30.515 29.68640625 -29.75 28.9453125 C-27.77706675 27.18829043 -27.77706675 27.18829043 -28 25 C-28.66 24.67 -29.32 24.34 -30 24 C-30 23.34 -30 22.68 -30 22 C-26.04 21.67 -22.08 21.34 -18 21 C-18 19.68 -18 18.36 -18 17 C-17.01 16.505 -17.01 16.505 -16 16 C-16 17.65 -16 19.3 -16 21 C-15.01 20.01 -14.02 19.02 -13 18 C-13.99 16.515 -13.99 16.515 -15 15 C-11.04 14.67 -7.08 14.34 -3 14 C-3.99 12.515 -3.99 12.515 -5 11 C-2.16569547 7.7457985 -0.31392226 6.4793247 4 6 C3.01 5.071875 3.01 5.071875 2 4.125 C0 2 0 2 0 0 Z " fill="#FDF203" transform="translate(288,73)"/>
<path d="M0 0 C2.02054804 1.64169528 4.02043058 3.30911778 6 5 C6 5.33 6 5.66 6 6 C4.02 6 2.04 6 0 6 C0.99 7.485 0.99 7.485 2 9 C3.65 8.34 5.3 7.68 7 7 C7 42.97 7 78.94 7 116 C4.69 116 2.38 116 0 116 C0 118.64 0 121.28 0 124 C-2.97 124.495 -2.97 124.495 -6 125 C-6 126.32 -6 127.64 -6 129 C-8 131 -8 131 -11.2578125 131.1953125 C-13.17207031 131.16050781 -13.17207031 131.16050781 -15.125 131.125 C-16.40632813 131.10695313 -17.68765625 131.08890625 -19.0078125 131.0703125 C-19.99523437 131.04710937 -20.98265625 131.02390625 -22 131 C-22 130.67 -22 130.34 -22 130 C-18.37 129.67 -14.74 129.34 -11 129 C-11 128.01 -11 127.02 -11 126 C-9.9375 124.3125 -9.9375 124.3125 -8 123 C-5.66726516 122.94715487 -3.33264601 122.94336929 -1 123 C-1.00092179 122.37216645 -1.00184359 121.7443329 -1.00279331 121.0974741 C-1.02484875 105.84209769 -1.04141165 90.58672616 -1.05181217 75.33133793 C-1.05697508 67.95404044 -1.06401767 60.57675357 -1.07543945 53.19946289 C-1.08538646 46.7716782 -1.09185347 40.3439012 -1.09408849 33.91610903 C-1.09539557 30.51060722 -1.09848125 27.10512742 -1.10573006 23.69963264 C-1.11293606 19.90398959 -1.11399113 16.10839288 -1.11352539 12.31274414 C-1.11712067 11.17554932 -1.12071594 10.03835449 -1.12442017 8.86669922 C-1.1230455 7.83879776 -1.12167084 6.8108963 -1.12025452 5.75184631 C-1.12117631 4.85309815 -1.1220981 3.95434999 -1.12304783 3.02836704 C-1 1 -1 1 0 0 Z " fill="#323301" transform="translate(317,221)"/>
<path d="M0 0 C0 35.97 0 71.94 0 109 C-2.31 109 -4.62 109 -7 109 C-7 111.64 -7 114.28 -7 117 C-9.97 117.495 -9.97 117.495 -13 118 C-13 119.32 -13 120.64 -13 122 C-15 124 -15 124 -18.2578125 124.1953125 C-19.53398437 124.17210937 -20.81015625 124.14890625 -22.125 124.125 C-24.04699219 124.09792969 -24.04699219 124.09792969 -26.0078125 124.0703125 C-26.99523437 124.04710937 -27.98265625 124.02390625 -29 124 C-29 123.67 -29 123.34 -29 123 C-23.555 122.505 -23.555 122.505 -18 122 C-18 121.01 -18 120.02 -18 119 C-16.9375 117.3125 -16.9375 117.3125 -15 116 C-12.69 116 -10.38 116 -8 116 C-8 84.32 -8 52.64 -8 20 C-7.67 20 -7.34 20 -7 20 C-7 49.04 -7 78.08 -7 108 C-5.35 108 -3.7 108 -2 108 C-2 73.68 -2 39.36 -2 4 C-2.99 3.67 -3.98 3.34 -5 3 C-1.125 0 -1.125 0 0 0 Z " fill="#3C3A00" transform="translate(324,228)"/>
<path d="M0 0 C53.46 0 106.92 0 162 0 C162.33 0.99 162.66 1.98 163 3 C110.53 3 58.06 3 4 3 C4.99 4.485 4.99 4.485 6 6 C2.21503862 4.48601545 1.9927802 3.9855604 0 0 Z " fill="#CAC92B" transform="translate(288,73)"/>
<path d="M0 0 C0.33 0 0.66 0 1 0 C1 69.63 1 139.26 1 211 C2.32 210.67 3.64 210.34 5 210 C5.66 211.32 6.32 212.64 7 214 C5.02 214.99 5.02 214.99 3 216 C1.52254772 215.0279417 1.52254772 215.0279417 0 213 C-0.28846006 210.11211068 -0.39154149 207.44117104 -0.36076355 204.55293274 C-0.36332682 203.68057281 -0.3658901 202.80821288 -0.36853105 201.90941781 C-0.37348767 198.97498928 -0.35694507 196.04107088 -0.34057617 193.10668945 C-0.33973031 191.00775159 -0.34020425 188.90881284 -0.34190369 186.80987549 C-0.34276664 181.10148023 -0.32509226 175.39327296 -0.30418181 169.6849215 C-0.28546503 163.72315939 -0.28366852 157.76139328 -0.28010559 151.79960632 C-0.27077041 140.50551256 -0.24613669 129.21150561 -0.21605712 117.91745013 C-0.18255892 105.06153095 -0.16603863 92.20560769 -0.15097082 79.34965575 C-0.11958844 52.89972231 -0.06679933 26.44986601 0 0 Z " fill="#4B4D00" transform="translate(375,117)"/>
<path d="M0 0 C0.66 0 1.32 0 2 0 C2.33 1.98 2.66 3.96 3 6 C4.65 4.68 6.3 3.36 8 2 C7.34 3.65 6.68 5.3 6 7 C11.16970243 7.09034431 15.92418065 7.04502163 21 6 C23.3125 6.4375 23.3125 6.4375 25 7 C25 7.99 25 8.98 25 10 C26.485 10.495 26.485 10.495 28 11 C26.35 12.32 24.7 13.64 23 15 C22.67 13.35 22.34 11.7 22 10 C21.319375 10.7425 21.319375 10.7425 20.625 11.5 C19 13 19 13 17 13 C16.67 13.66 16.34 14.32 16 15 C16 13.02 16 11.04 16 9 C13.36 10.98 10.72 12.96 8 15 C7.67 13.35 7.34 11.7 7 10 C5.02 11.65 3.04 13.3 1 15 C0.67 13.35 0.34 11.7 0 10 C-0.45375 10.495 -0.9075 10.99 -1.375 11.5 C-3 13 -3 13 -5 13 C-5.33 13.66 -5.66 14.32 -6 15 C-6 12.69 -6 10.38 -6 8 C-4.02 8 -2.04 8 0 8 C-0.556875 6.8553125 -0.556875 6.8553125 -1.125 5.6875 C-1.41375 4.800625 -1.7025 3.91375 -2 3 C-1.34 2.01 -0.68 1.02 0 0 Z " fill="#E7DF27" transform="translate(249,102)"/>
<path d="M0 0 C0 0.66 0 1.32 0 2 C2.31 2.33 4.62 2.66 7 3 C7 3.99 7 4.98 7 6 C5 7.6875 5 7.6875 3 9 C3 7.02 3 5.04 3 3 C0.36 4.98 -2.28 6.96 -5 9 C-5.33 7.35 -5.66 5.7 -6 4 C-7.65 5.32 -9.3 6.64 -11 8 C-11 6.02 -11 4.04 -11 2 C-9.68 2.33 -8.36 2.66 -7 3 C-7 2.34 -7 1.68 -7 1 C-4 0 -4 0 0 0 Z " fill="#E9E120" transform="translate(306,108)"/>
<path d="M0 0 C4.29 0 8.58 0 13 0 C13 0.66 13 1.32 13 2 C10.36 2 7.72 2 5 2 C5 2.99 5 3.98 5 5 C5.66 5.33 6.32 5.66 7 6 C7.33 6.99 7.66 7.98 8 9 C10.00016466 10.20882096 10.00016466 10.20882096 12 11 C8.25 14 8.25 14 6 14 C5.67 12.35 5.34 10.7 5 9 C3.68 9 2.36 9 1 9 C1 6.66666667 1 4.33333333 1 2 C0.67 1.34 0.34 0.68 0 0 Z " fill="#F4F12C" transform="translate(192,345)"/>
<path d="M0 0 C1.175625 0.144375 2.35125 0.28875 3.5625 0.4375 C3.5625 0.7675 3.5625 1.0975 3.5625 1.4375 C1.5825 1.7675 -0.3975 2.0975 -2.4375 2.4375 C-2.4375 3.7575 -2.4375 5.0775 -2.4375 6.4375 C-3.625 8.1875 -3.625 8.1875 -5.4375 9.4375 C-7.10416667 9.4375 -8.77083333 9.4375 -10.4375 9.4375 C-12.25226003 10.83335785 -12.25226003 10.83335785 -13.4375 12.4375 C-15.12246298 11.46864628 -16.78928756 10.46763277 -18.4375 9.4375 C-18.4375 9.1075 -18.4375 8.7775 -18.4375 8.4375 C-17.426875 8.416875 -16.41625 8.39625 -15.375 8.375 C-11.75444668 7.90970801 -10.37220869 6.58609565 -8 3.875 C-5.37745653 0.95444023 -3.96852324 -0.04192102 0 0 Z " fill="#0D0901" transform="translate(379.4375,358.5625)"/>
<path d="M0 0 C2.04119788 1.61594832 4.04072937 3.2856382 6 5 C6 5.66 6 6.32 6 7 C4.68 7.33 3.36 7.66 2 8 C3.65 9.98 5.3 11.96 7 14 C4.36 14.33 1.72 14.66 -1 15 C-1.02685412 12.68756208 -1.04632841 10.3750373 -1.0625 8.0625 C-1.07410156 6.77472656 -1.08570313 5.48695313 -1.09765625 4.16015625 C-1 1 -1 1 0 0 Z " fill="#3B3701" transform="translate(317,155)"/>
<path d="M0 0 C0.33 0 0.66 0 1 0 C1 1.65 1 3.3 1 5 C1.45375 4.525625 1.9075 4.05125 2.375 3.5625 C4 2 4 2 6 1 C5.43447641 4.28003681 4.67167078 5.97321527 2 8 C-0.69921875 8.29296875 -0.69921875 8.29296875 -3.6875 8.1875 C-4.68136719 8.16042969 -5.67523438 8.13335937 -6.69921875 8.10546875 C-7.45847656 8.07066406 -8.21773438 8.03585938 -9 8 C-8.95875 8.78375 -8.9175 9.5675 -8.875 10.375 C-9 13 -9 13 -11 15 C-11.99 14.67 -12.98 14.34 -14 14 C-13.505 13.54625 -13.01 13.0925 -12.5 12.625 C-10.77390663 11.12364481 -10.77390663 11.12364481 -11 9 C-11.66 8.67 -12.32 8.34 -13 8 C-13 7.34 -13 6.68 -13 6 C-7.06 5.505 -7.06 5.505 -1 5 C-1 3.68 -1 2.36 -1 1 C-0.67 0.67 -0.34 0.34 0 0 Z " fill="#F4F22A" transform="translate(271,89)"/>
<path d="M0 0 C0.66 0 1.32 0 2 0 C2.1953125 2.05078125 2.390625 4.1015625 2.5859375 6.15234375 C2.72257813 6.76207031 2.85921875 7.37179688 3 8 C3.66 8.33 4.32 8.66 5 9 C4.6875 10.875 4.6875 10.875 4 13 C3.01 13.66 2.02 14.32 1 15 C0.67 13.35 0.34 11.7 0 10 C-0.45375 10.495 -0.9075 10.99 -1.375 11.5 C-3 13 -3 13 -5 13 C-5.33 13.66 -5.66 14.32 -6 15 C-6 12.69 -6 10.38 -6 8 C-4.02 8 -2.04 8 0 8 C-0.556875 6.8553125 -0.556875 6.8553125 -1.125 5.6875 C-1.41375 4.800625 -1.7025 3.91375 -2 3 C-1.34 2.01 -0.68 1.02 0 0 Z " fill="#A19D26" transform="translate(249,102)"/>
<path d="M0 0 C5.625 2.25 5.625 2.25 8 6 C6.02 6.33 4.04 6.66 2 7 C2.99 7.804375 3.98 8.60875 5 9.4375 C5.99 10.283125 6.98 11.12875 8 12 C8 12.33 8 12.66 8 13 C5.36 13.33 2.72 13.66 0 14 C0 9.38 0 4.76 0 0 Z " fill="#362F02" transform="translate(316,207)"/>
<path d="M0 0 C0.33 0 0.66 0 1 0 C1 2.64 1 5.28 1 8 C-0.98 8.33 -2.96 8.66 -5 9 C-5 10.32 -5 11.64 -5 13 C-7 15 -7 15 -10.2578125 15.1953125 C-11.53398437 15.17210937 -12.81015625 15.14890625 -14.125 15.125 C-16.04699219 15.09792969 -16.04699219 15.09792969 -18.0078125 15.0703125 C-19.48894531 15.03550781 -19.48894531 15.03550781 -21 15 C-21 14.67 -21 14.34 -21 14 C-15.555 13.505 -15.555 13.505 -10 13 C-10 12.01 -10 11.02 -10 10 C-8.9375 8.3125 -8.9375 8.3125 -7 7 C-3.3125 6.8125 -3.3125 6.8125 0 7 C0 4.69 0 2.38 0 0 Z " fill="#7C7A15" transform="translate(316,337)"/>
<path d="M0 0 C0.78375 0.185625 1.5675 0.37125 2.375 0.5625 C4.97089775 1.25962266 4.97089775 1.25962266 7 0 C8.70702735 -0.06996014 10.41668003 -0.08440154 12.125 -0.0625 C13.03507812 -0.05347656 13.94515625 -0.04445313 14.8828125 -0.03515625 C15.58148438 -0.02355469 16.28015625 -0.01195312 17 0 C17 0.66 17 1.32 17 2 C14.69 2.33 12.38 2.66 10 3 C10.66 4.32 11.32 5.64 12 7 C10.02 7.99 10.02 7.99 8 9 C7.67 7.35 7.34 5.7 7 4 C6.67 4.66 6.34 5.32 6 6 C5.34 6 4.68 6 4 6 C2.61061923 4.03852126 1.2739589 2.03833424 0 0 Z " fill="#EDE927" transform="translate(271,416)"/>
<path d="M0 0 C0.33 0 0.66 0 1 0 C1 7.92 1 15.84 1 24 C2.32 23.67 3.64 23.34 5 23 C5.66 24.32 6.32 25.64 7 27 C5.02 27.99 5.02 27.99 3 29 C1.51831055 27.8737793 1.51831055 27.8737793 0 26 C-0.34057617 23.27270508 -0.34057617 23.27270508 -0.29296875 20.01953125 C-0.28330078 18.85615234 -0.27363281 17.69277344 -0.26367188 16.49414062 C-0.2259668 14.67172852 -0.2259668 14.67172852 -0.1875 12.8125 C-0.17396484 11.58595703 -0.16042969 10.35941406 -0.14648438 9.09570312 C-0.11108741 6.06336336 -0.0617076 3.03190004 0 0 Z " fill="#686A12" transform="translate(375,304)"/>
<path d="M0 0 C-0.97866338 1.14626322 -1.95794587 2.29199788 -2.9375 3.4375 C-3.48277344 4.07558594 -4.02804688 4.71367187 -4.58984375 5.37109375 C-5.36795695 6.26991149 -6.15936528 7.15936528 -7 8 C-9.67058851 8.14115161 -12.32432238 8.04247107 -15 8 C-15 7.67 -15 7.34 -15 7 C-13.02 6.67 -11.04 6.34 -9 6 C-9.66 5.01 -10.32 4.02 -11 3 C-8.21756596 -1.17365106 -4.53441502 -0.22300402 0 0 Z " fill="#EFE91D" transform="translate(221,323)"/>
<path d="M0 0 C0.99 0.66 1.98 1.32 3 2 C5.0492094 2.45139459 5.0492094 2.45139459 7.1875 2.625 C8.445625 2.74875 9.70375 2.8725 11 3 C11.1953125 4.98567708 11.390625 6.97135417 11.5859375 8.95703125 C11.92665391 11.29988142 11.92665391 11.29988142 14 14 C11.525 13.01 11.525 13.01 9 12 C9 9.69 9 7.38 9 5 C7.9275 4.855625 6.855 4.71125 5.75 4.5625 C3.08337051 4.16250558 0.58600271 3.72408076 -2 3 C-2 2.34 -2 1.68 -2 1 C-1.34 0.67 -0.68 0.34 0 0 Z " fill="#F5F02E" transform="translate(246,334)"/>
<path d="M0 0 C4.95 0 9.9 0 15 0 C13.68 0.99 12.36 1.98 11 3 C9.7483533 5.08334635 9.7483533 5.08334635 9 7 C8.54625 6.34 8.0925 5.68 7.625 5 C7.08875 4.34 6.5525 3.68 6 3 C5.34 3 4.68 3 4 3 C3.67 3.66 3.34 4.32 3 5 C2.01 3.35 1.02 1.7 0 0 Z " fill="#3E3B04" transform="translate(412,95)"/>
<path d="M0 0 C1.1446875 0.556875 1.1446875 0.556875 2.3125 1.125 C3.6428125 1.558125 3.6428125 1.558125 5 2 C5.99 1.34 6.98 0.68 8 0 C8 5.28 8 10.56 8 16 C7.34 16 6.68 16 6 16 C6 12.04 6 8.08 6 4 C4.35 3.67 2.7 3.34 1 3 C0.67 2.01 0.34 1.02 0 0 Z " fill="#D5D533" transform="translate(375,330)"/>
<path d="M0 0 C1.98 0 3.96 0 6 0 C5.01 0.495 5.01 0.495 4 1 C4.515625 1.5775 5.03125 2.155 5.5625 2.75 C7 5 7 5 6.9375 7.125 C5.72986449 9.54027102 4.47128202 10.0433747 2 11 C1.34 9.68 0.68 8.36 0 7 C1.65 6.67 3.3 6.34 5 6 C3.35 4.02 1.7 2.04 0 0 Z " fill="#F1F72A" transform="translate(317,220)"/>
<path d="M0 0 C0.33 0.66 0.66 1.32 1 2 C1.61875 2.28875 2.2375 2.5775 2.875 2.875 C5.36796335 4.19480413 6.45147781 5.67721672 8 8 C5.36 8.33 2.72 8.66 0 9 C0 6.03 0 3.06 0 0 Z " fill="#3D3902" transform="translate(316,117)"/>
<path d="M0 0 C0.33 0 0.66 0 1 0 C1.33 1.65 1.66 3.3 2 5 C3.98 3.35 5.96 1.7 8 0 C8 2.31 8 4.62 8 7 C5.36 7 2.72 7 0 7 C0 5.68 0 4.36 0 3 C-0.66 2.67 -1.32 2.34 -2 2 C-1.34 1.34 -0.68 0.68 0 0 Z " fill="#F1EC2D" transform="translate(271,353)"/>
<path d="M0 0 C3.25543229 0.34879632 4.01873107 1.02133261 6.25 3.5625 C6.8275 4.366875 7.405 5.17125 8 6 C5.36 6.33 2.72 6.66 0 7 C0 4.69 0 2.38 0 0 Z " fill="#453E03" transform="translate(316,141)"/>
<path d="M0 0 C-1.5830577 4.2742558 -4.50568404 6.26531794 -8 9 C-8 6.36 -8 3.72 -8 1 C-7.01 1.495 -7.01 1.495 -6 2 C-1.73333333 0 -1.73333333 0 0 0 Z " fill="#DDD41E" transform="translate(228,373)"/>
<path d="M0 0 C0 2.31 0 4.62 0 7 C-2.31 7.33 -4.62 7.66 -7 8 C-5.52631579 2.35087719 -5.52631579 2.35087719 -2.9375 0.625 C-1 0 -1 0 0 0 Z " fill="#888219" transform="translate(294,404)"/>
<path d="M0 0 C2 1 2 1 4 5 C-0.62 5 -5.24 5 -10 5 C-8 3 -8 3 -4.4375 2.5 C-3.303125 2.335 -2.16875 2.17 -1 2 C-0.67 1.34 -0.34 0.68 0 0 Z " fill="#F4F121" transform="translate(341,376)"/>
<path d="M0 0 C0.33 0 0.66 0 1 0 C1.33 4.29 1.66 8.58 2 13 C1.01 13.66 0.02 14.32 -1 15 C-1.02685412 12.68756208 -1.04632841 10.3750373 -1.0625 8.0625 C-1.07410156 6.77472656 -1.08570313 5.48695313 -1.09765625 4.16015625 C-1 1 -1 1 0 0 Z " fill="#D2CE37" transform="translate(214,359)"/>
<path d="M0 0 C1.16945792 0.80847729 2.33550461 1.62189112 3.5 2.4375 C4.47453125 3.11619141 4.47453125 3.11619141 5.46875 3.80859375 C5.9740625 4.20175781 6.479375 4.59492188 7 5 C7 5.33 7 5.66 7 6 C4.36 6.33 1.72 6.66 -1 7 C-1.04254356 5.00045254 -1.04080783 2.99958364 -1 1 C-0.67 0.67 -0.34 0.34 0 0 Z " fill="#3B3C01" transform="translate(317,192)"/>
<path d="M0 0 C2.02054804 1.64169528 4.02043058 3.30911778 6 5 C6 5.33 6 5.66 6 6 C3.36 6.33 0.72 6.66 -2 7 C-1.34 4.69 -0.68 2.38 0 0 Z " fill="#494301" transform="translate(318,185)"/>
<path d="M0 0 C1.65 0 3.3 0 5 0 C6.25664978 2.90600261 7 4.79604584 7 8 C4.69 8.33 2.38 8.66 0 9 C0 8.34 0 7.68 0 7 C1.65 6.67 3.3 6.34 5 6 C3.35 4.02 1.7 2.04 0 0 Z " fill="#D6D626" transform="translate(317,132)"/>
<path d="M0 0 C2.31 0 4.62 0 7 0 C7 2.31 7 4.62 7 7 C5.83040013 6.02433888 4.66438823 5.044375 3.5 4.0625 C2.8503125 3.51722656 2.200625 2.97195312 1.53125 2.41015625 C1.0259375 1.94480469 0.520625 1.47945313 0 1 C0 0.67 0 0.34 0 0 Z " fill="#F2ED29" transform="translate(317,125)"/>
<path d="M0 0 C0.66 0 1.32 0 2 0 C2.33 1.32 2.66 2.64 3 4 C4.32 3.34 5.64 2.68 7 2 C7 1.34 7 0.68 7 0 C7.66 0 8.32 0 9 0 C9 1.98 9 3.96 9 6 C8.67 5.01 8.34 4.02 8 3 C7.34 3 6.68 3 6 3 C5.67 3.99 5.34 4.98 5 6 C3.68 6 2.36 6 1 6 C1 4.68 1 3.36 1 2 C0.34 1.67 -0.32 1.34 -1 1 C-0.67 0.67 -0.34 0.34 0 0 Z " fill="#302B02" transform="translate(381,111)"/>
<path d="M0 0 C2.00841268 0.01421885 4.01537247 0.13420475 6.01953125 0.265625 C6.01953125 0.595625 6.01953125 0.925625 6.01953125 1.265625 C4.36953125 1.595625 2.71953125 1.925625 1.01953125 2.265625 C0.68953125 3.585625 0.35953125 4.905625 0.01953125 6.265625 C-2.45546875 5.275625 -2.45546875 5.275625 -4.98046875 4.265625 C-3.72152968 1.74774686 -2.88459378 0.38688832 0 0 Z " fill="#343205" transform="translate(398.98046875,109.734375)"/>
<path d="M0 0 C0.66 0 1.32 0 2 0 C2.33 1.32 2.66 2.64 3 4 C4.98 2.68 6.96 1.36 9 0 C7.71700242 2.86207152 6.469364 5.0245088 4 7 C3.01 7 2.02 7 1 7 C0.34 5.02 -0.32 3.04 -1 1 C-0.67 0.67 -0.34 0.34 0 0 Z " fill="#241E01" transform="translate(263,111)"/>
<path d="M0 0 C0.33 0 0.66 0 1 0 C1.38133299 1.9914056 1.71325582 3.99279077 2 6 C0.05909174 7.94090826 -3.47293902 7.39919435 -6.0625 7.5625 C-7.35285156 7.64628906 -8.64320313 7.73007813 -9.97265625 7.81640625 C-10.97167969 7.87699219 -11.97070312 7.93757813 -13 8 C-13 7.34 -13 6.68 -13 6 C-7.06 5.505 -7.06 5.505 -1 5 C-1 3.68 -1 2.36 -1 1 C-0.67 0.67 -0.34 0.34 0 0 Z " fill="#BAB832" transform="translate(271,89)"/>
<path d="M0 0 C2.31 0 4.62 0 7 0 C7 2.31 7 4.62 7 7 C6.67 6.34 6.34 5.68 6 5 C5.0409375 4.5359375 5.0409375 4.5359375 4.0625 4.0625 C2 3 2 3 0 0 Z " fill="#2B2902" transform="translate(332,382)"/>
<path d="M0 0 C0.33 1.32 0.66 2.64 1 4 C2.65 3.67 4.3 3.34 6 3 C6.99 4.485 6.99 4.485 8 6 C5.36 6 2.72 6 0 6 C-0.66 4.68 -1.32 3.36 -2 2 C-1.34 1.34 -0.68 0.68 0 0 Z " fill="#303006" transform="translate(249,331)"/>
<path d="M0 0 C2.02054804 1.64169528 4.02043058 3.30911778 6 5 C6 5.33 6 5.66 6 6 C3.69 6.33 1.38 6.66 -1 7 C-1.04254356 5.00045254 -1.04080783 2.99958364 -1 1 C-0.67 0.67 -0.34 0.34 0 0 Z " fill="#3F3905" transform="translate(317,170)"/>
<path d="M0 0 C2.02054804 1.64169528 4.02043058 3.30911778 6 5 C6 5.33 6 5.66 6 6 C3.69 6.33 1.38 6.66 -1 7 C-1.04254356 5.00045254 -1.04080783 2.99958364 -1 1 C-0.67 0.67 -0.34 0.34 0 0 Z " fill="#322C00" transform="translate(317,133)"/>
<path d="M0 0 C2.02054804 1.64169528 4.02043058 3.30911778 6 5 C6 5.33 6 5.66 6 6 C3.69 6.33 1.38 6.66 -1 7 C-1.04254356 5.00045254 -1.04080783 2.99958364 -1 1 C-0.67 0.67 -0.34 0.34 0 0 Z " fill="#403903" transform="translate(317,126)"/>
<path d="M0 0 C2.02054804 1.64169528 4.02043058 3.30911778 6 5 C6 5.33 6 5.66 6 6 C3.69 6.33 1.38 6.66 -1 7 C-1.04254356 5.00045254 -1.04080783 2.99958364 -1 1 C-0.67 0.67 -0.34 0.34 0 0 Z " fill="#444302" transform="translate(317,199)"/>
<path d="M0 0 C1.16959987 0.97566112 2.33561177 1.955625 3.5 2.9375 C4.1496875 3.48277344 4.799375 4.02804688 5.46875 4.58984375 C5.9740625 5.05519531 6.479375 5.52054688 7 6 C7 6.33 7 6.66 7 7 C4.69 7.33 2.38 7.66 0 8 C0 5.36 0 2.72 0 0 Z " fill="#5B590B" transform="translate(317,177)"/>
<path d="M0 0 C2.02054804 1.64169528 4.02043058 3.30911778 6 5 C6 5.33 6 5.66 6 6 C3.69 6.33 1.38 6.66 -1 7 C-1.04254356 5.00045254 -1.04080783 2.99958364 -1 1 C-0.67 0.67 -0.34 0.34 0 0 Z " fill="#403C04" transform="translate(317,148)"/>
<path d="M0 0 C-0.66 0.66 -1.32 1.32 -2 2 C-4.125 1.625 -4.125 1.625 -6 1 C-6.33 2.98 -6.66 4.96 -7 7 C-8.32 5.68 -9.64 4.36 -11 3 C-8.21756596 -1.17365106 -4.53441502 -0.22300402 0 0 Z " fill="#F0EA26" transform="translate(294,81)"/>
<path d="M0 0 C2.04119788 1.61594832 4.04072937 3.2856382 6 5 C6 5.66 6 6.32 6 7 C4.02 7.33 2.04 7.66 0 8 C0 5.36 0 2.72 0 0 Z " fill="#59580C" transform="translate(317,155)"/>
<path d="M0 0 C2.31 0.33 4.62 0.66 7 1 C7 1.99 7 2.98 7 4 C5 5.6875 5 5.6875 3 7 C3 5.02 3 3.04 3 1 C2.01 1.33 1.02 1.66 0 2 C0 1.34 0 0.68 0 0 Z " fill="#F1EB33" transform="translate(306,110)"/>
<path d="M0 0 C0 3 0 3 -1 5 C-0.01 5.66 0.98 6.32 2 7 C0.02 7.99 0.02 7.99 -2 9 C-2.33 8.34 -2.66 7.68 -3 7 C-3.66 7.66 -4.32 8.32 -5 9 C-4.5206753 4.68607774 -3.2542015 2.83430453 0 0 Z " fill="#F3F027" transform="translate(256,104)"/>
<path d="M0 0 C2.03833424 1.2739589 4.03852126 2.61061923 6 4 C6 4.66 6 5.32 6 6 C3.36 6 0.72 6 -2 6 C-2 5.34 -2 4.68 -2 4 C-1.01 3.67 -0.02 3.34 1 3 C0.67 2.01 0.34 1.02 0 0 Z " fill="#D3CC35" transform="translate(332,383)"/>
<path d="M0 0 C2.01822917 0.06510417 4.03645833 0.13020833 6.0546875 0.1953125 C6.0546875 0.5253125 6.0546875 0.8553125 6.0546875 1.1953125 C4.0746875 1.5253125 2.0946875 1.8553125 0.0546875 2.1953125 C0.0546875 3.5153125 0.0546875 4.8353125 0.0546875 6.1953125 C-0.9353125 6.6903125 -0.9353125 6.6903125 -1.9453125 7.1953125 C-1.9453125 5.8753125 -1.9453125 4.5553125 -1.9453125 3.1953125 C-2.6053125 2.8653125 -3.2653125 2.5353125 -3.9453125 2.1953125 C-1.9453125 0.1953125 -1.9453125 0.1953125 0 0 Z " fill="#4F4F09" transform="translate(376.9453125,358.8046875)"/>
<path d="M0 0 C0.99 0.99 1.98 1.98 3 3 C1.29171079 5.10633718 0.47851584 5.93801608 -2.26171875 6.29296875 C-3.06222656 6.25816406 -3.86273438 6.22335937 -4.6875 6.1875 C-5.49574219 6.16042969 -6.30398438 6.13335937 -7.13671875 6.10546875 C-7.75160156 6.07066406 -8.36648438 6.03585937 -9 6 C-9 5.67 -9 5.34 -9 5 C-6.36 5 -3.72 5 -1 5 C-0.67 3.35 -0.34 1.7 0 0 Z " fill="#EAE82D" transform="translate(361,368)"/>
<path d="M0 0 C1 3 1 3 0.0625 5.1875 C-0.4634375 6.0846875 -0.4634375 6.0846875 -1 7 C-2.65 5.02 -4.3 3.04 -6 1 C-4.02 0.67 -2.04 0.34 0 0 Z " fill="#E1DE36" transform="translate(205,336)"/>
<path d="M0 0 C3.65316671 1.24976756 4.78065836 1.67098753 7 5 C4.69 5 2.38 5 0 5 C0 3.35 0 1.7 0 0 Z " fill="#484502" transform="translate(317,208)"/>
<path d="M0 0 C0.33 1.32 0.66 2.64 1 4 C0.34 4 -0.32 4 -1 4 C-1.33 4.99 -1.66 5.98 -2 7 C-3.32 5.35 -4.64 3.7 -6 2 C-4.02 2 -2.04 2 0 2 C0 1.34 0 0.68 0 0 Z " fill="#F4F422" transform="translate(324,138)"/>
<path d="M0 0 C0 0.99 0 1.98 0 3 C-0.66 3.66 -1.32 4.32 -2 5 C-3.68496298 4.03114628 -5.35178756 3.03013277 -7 2 C-7 1.67 -7 1.34 -7 1 C-3.535 0.505 -3.535 0.505 0 0 Z " fill="#221E00" transform="translate(368,366)"/>
<path d="M0 0 C0.66 0 1.32 0 2 0 C2.33 0.66 2.66 1.32 3 2 C5.01669827 3.13350534 5.01669827 3.13350534 7 4 C3.25 7 3.25 7 1 7 C0.67 4.69 0.34 2.38 0 0 Z " fill="#D0CB1E" transform="translate(197,352)"/>
<path d="M0 0 C1.98 0 3.96 0 6 0 C6.33 0.66 6.66 1.32 7 2 C6.01 2.99 5.02 3.98 4 5 C2.68 3.35 1.36 1.7 0 0 Z " fill="#EEEF2A" transform="translate(317,147)"/>
<path d="M0 0 C1.98 0 3.96 0 6 0 C4.625 2 4.625 2 3 4 C2.34 4 1.68 4 1 4 C0.67 4.66 0.34 5.32 0 6 C0 4.02 0 2.04 0 0 Z " fill="#E6E744" transform="translate(243,111)"/>
<path d="M0 0 C1.98 0 3.96 0 6 0 C6 1.65 6 3.3 6 5 C2.83884224 3.63016497 2.0072908 3.0109362 0 0 Z " fill="#3B3603" transform="translate(450,74)"/>
<path d="M0 0 C2.64 0.33 5.28 0.66 8 1 C7.01 2.32 6.02 3.64 5 5 C3.0625 4.1875 3.0625 4.1875 1 3 C0.67 2.01 0.34 1.02 0 0 Z " fill="#DEDD26" transform="translate(257,402)"/>
<path d="M0 0 C1.65 0 3.3 0 5 0 C5 1.65 5 3.3 5 5 C4.01 5 3.02 5 2 5 C2 4.01 2 3.02 2 2 C1.34 2 0.68 2 0 2 C0 1.34 0 0.68 0 0 Z " fill="#252104" transform="translate(230,382)"/>
<path d="M0 0 C1.65 1.32 3.3 2.64 5 4 C4.67 5.32 4.34 6.64 4 8 C3.34 8 2.68 8 2 8 C0.74335022 5.09399739 0 3.20395416 0 0 Z " fill="#272704" transform="translate(204,358)"/>
<path d="M0 0 C1.98 0 3.96 0 6 0 C5.01 0.495 5.01 0.495 4 1 C5.32 2.65 6.64 4.3 8 6 C5 6 5 6 3.61328125 4.6875 C2.40885417 3.125 1.20442708 1.5625 0 0 Z " fill="#F2F52D" transform="translate(317,154)"/>
<path d="M0 0 C1.9375 0.8125 1.9375 0.8125 4 2 C4.33 2.99 4.66 3.98 5 5 C3.02 5.99 3.02 5.99 1 7 C0.67 4.69 0.34 2.38 0 0 Z " fill="#B9BC41" transform="translate(278,418)"/>
<path d="M0 0 C1.485 0.99 1.485 0.99 3 2 C1.25 5.875 1.25 5.875 -1 7 C-1.04254356 5.00045254 -1.04080783 2.99958364 -1 1 C-0.67 0.67 -0.34 0.34 0 0 Z " fill="#393A06" transform="translate(236,389)"/>
<path d="M0 0 C0 2.31 0 4.62 0 7 C-0.66 7 -1.32 7 -2 7 C-3.625 5 -3.625 5 -5 3 C-1.125 0 -1.125 0 0 0 Z " fill="#C9CE34" transform="translate(265,345)"/>
<path d="M0 0 C0.99 0.66 1.98 1.32 3 2 C5.32387947 2.39387788 7.65793749 2.73486085 10 3 C10 3.33 10 3.66 10 4 C1.42857143 4.14285714 1.42857143 4.14285714 -2 3 C-2 2.34 -2 1.68 -2 1 C-1.34 0.67 -0.68 0.34 0 0 Z " fill="#E3DC30" transform="translate(246,334)"/>
<path d="M0 0 C0.33 0.66 0.66 1.32 1 2 C1.99 1.67 2.98 1.34 4 1 C4.33 1.99 4.66 2.98 5 4 C3.35 4.66 1.7 5.32 0 6 C0 4.02 0 2.04 0 0 Z " fill="#2B2600" transform="translate(235,323)"/>
<path d="M0 0 C1.98 0 3.96 0 6 0 C5.34 1.32 4.68 2.64 4 4 C2.68 3.34 1.36 2.68 0 2 C0 1.34 0 0.68 0 0 Z " fill="#D5D83E" transform="translate(317,227)"/>
<path d="M0 0 C0.99 0.33 1.98 0.66 3 1 C2.38125 1.5775 1.7625 2.155 1.125 2.75 C-0.81347053 4.80249821 -1.90014249 6.43366582 -3 9 C-3.36923077 3.46153846 -3.36923077 3.46153846 -1.5 1.125 C-1.005 0.75375 -0.51 0.3825 0 0 Z " fill="#0B0901" transform="translate(379,113)"/>
<path d="M0 0 C1.32 0.33 2.64 0.66 4 1 C3.6875 2.875 3.6875 2.875 3 5 C2.01 5.66 1.02 6.32 0 7 C0 4.69 0 2.38 0 0 Z " fill="#C8C51C" transform="translate(250,110)"/>
<path d="M0 0 C0.66 0 1.32 0 2 0 C2 1.98 2 3.96 2 6 C0.68 5.34 -0.64 4.68 -2 4 C-1.34 2.68 -0.68 1.36 0 0 Z " fill="#564F01" transform="translate(440,81)"/>
<path d="M0 0 C-2.97 2.475 -2.97 2.475 -6 5 C-6 3.35 -6 1.7 -6 0 C-3 -1 -3 -1 0 0 Z " fill="#F7F52D" transform="translate(301,404)"/>
<path d="M0 0 C0.66 0 1.32 0 2 0 C2.33 1.98 2.66 3.96 3 6 C2.01 6.495 2.01 6.495 1 7 C0.01 5.35 -0.98 3.7 -2 2 C-1.34 1.34 -0.68 0.68 0 0 Z " fill="#3A3202" transform="translate(344,375)"/>
<path d="M0 0 C1.98 0.99 1.98 0.99 4 2 C4 2.99 4 3.98 4 5 C3.01 5.66 2.02 6.32 1 7 C0.67 4.69 0.34 2.38 0 0 Z " fill="#544409" transform="translate(271,352)"/>
<path d="M0 0 C2.31 0 4.62 0 7 0 C7 0.66 7 1.32 7 2 C5.02 2.99 5.02 2.99 3 4 C2.01 2.68 1.02 1.36 0 0 Z " fill="#F1F130" transform="translate(317,169)"/>
<path d="M0 0 C2.475 0.99 2.475 0.99 5 2 C3.35 3.65 1.7 5.3 0 7 C0 4.69 0 2.38 0 0 Z " fill="#F2E83E" transform="translate(287,110)"/>
<path d="M0 0 C2.475 0.495 2.475 0.495 5 1 C3.35 2.65 1.7 4.3 0 6 C0 4.02 0 2.04 0 0 Z " fill="#F7EB2C" transform="translate(295,110)"/>
<path d="M0 0 C1.485 0.99 1.485 0.99 3 2 C1.25 5.875 1.25 5.875 -1 7 C-0.67 4.69 -0.34 2.38 0 0 Z " fill="#EBEB27" transform="translate(412,96)"/>
</svg>
