<svg version="1.1" id="Layer_1" xmlns="http://www.w3.org/2000/svg" xmlns:xlink="http://www.w3.org/1999/xlink" x="0px" y="0px"
	 width="100%" viewBox="0 0 512 512" enable-background="new 0 0 512 512" xml:space="preserve">
<path fill="#FFFFFF" opacity="1.000000" stroke="none" 
	d="
M0.999999,240.000000 
	C1.000000,160.369186 1.000000,80.738380 1.000000,1.053784 
	C171.553986,1.053784 342.107971,1.053784 513.000000,1.053784 
	C513.000000,74.353882 513.000000,147.708282 512.643799,221.429108 
	C509.164032,211.728470 500.305878,205.096100 489.844452,205.051468 
	C457.035858,204.911514 424.226288,204.978745 391.417145,205.010681 
	C378.649750,205.023102 367.890350,216.495346 367.916290,228.399872 
	C368.080963,304.010498 368.121887,379.622070 367.892090,455.232361 
	C367.848694,469.505981 379.238281,479.829834 392.520020,479.925446 
	C424.494812,480.155548 456.473663,480.144897 488.447632,479.860992 
	C493.942902,479.812164 500.021118,479.323944 503.995087,474.427673 
	C507.214142,470.461578 510.014130,466.155365 513.000000,462.000000 
	C513.000000,478.990936 513.000000,495.981842 513.000000,512.979614 
	C342.433472,512.986389 171.866959,512.986389 1.000000,512.986389 
	C1.000000,427.645996 1.000000,342.291656 1.343681,256.549011 
	C5.798100,263.750916 11.812000,268.910736 20.719437,268.910706 
	C34.969604,268.910675 49.221390,268.387695 63.468979,267.966858 
	C67.892967,267.836212 72.338661,267.555267 76.717438,266.938507 
	C92.469109,264.719788 108.257088,262.671600 123.916023,259.906006 
	C139.788803,257.102631 155.607346,253.878296 171.302979,250.210663 
	C199.601196,243.598190 227.457993,235.345901 254.580933,224.903015 
	C276.096100,216.619232 297.528717,208.033844 318.555634,198.596848 
	C335.270691,191.095032 351.652588,182.692719 367.577637,173.627747 
	C389.093964,161.380142 410.074921,148.186432 431.188843,135.240891 
	C437.232025,131.535660 437.798828,131.329330 442.917206,136.415405 
	C450.127197,143.579971 457.439392,150.650146 464.422211,158.030930 
	C467.445953,161.227005 470.926575,163.077072 474.901001,161.817825 
	C478.636383,160.634293 480.228149,157.008621 481.034332,153.123016 
	C483.619202,140.664551 486.234100,128.209839 489.060089,115.804405 
	C494.279358,92.893036 499.694366,70.026314 504.946594,47.122368 
	C506.646729,39.708439 501.235229,32.691597 494.949860,34.054985 
	C487.401917,35.692234 479.878662,37.451672 472.373962,39.278229 
	C444.096100,46.160690 415.814209,53.028393 387.585205,60.106430 
	C384.863861,60.788761 381.872406,62.359749 380.103119,64.447639 
	C376.813599,68.329521 377.836578,72.304123 382.967987,77.382240 
	C389.317139,83.665482 395.940796,89.670387 402.359924,95.884308 
	C406.425964,99.820389 406.328003,101.117607 401.599243,104.046295 
	C386.969940,113.106705 372.710144,122.886894 357.515808,130.884750 
	C330.512909,145.098236 303.382355,159.239441 275.468994,171.508362 
	C243.341202,185.629669 210.036270,196.921036 175.924561,205.489395 
	C159.535278,209.606125 143.096222,213.627731 126.515839,216.848938 
	C112.668571,219.539169 98.616211,221.288315 84.593056,222.926910 
	C70.133209,224.616531 55.611523,225.838333 41.091263,226.921188 
	C34.793945,227.390808 28.421803,226.782410 22.104630,227.091949 
	C18.955343,227.246246 15.285422,227.545074 12.854417,229.227982 
	C8.502707,232.240494 4.909976,236.349380 0.999999,240.000000 
M340.000000,456.257751 
	C340.000000,401.426453 340.004974,346.595184 339.996368,291.763885 
	C339.994324,278.643829 329.446930,268.010986 316.416931,268.005005 
	C283.418121,267.989899 250.419312,267.991974 217.420502,268.005219 
	C208.280273,268.008911 198.626923,274.872009 196.084015,283.614990 
	C194.921371,287.612396 194.097336,291.872375 194.086548,296.015778 
	C193.953766,347.013580 193.983032,398.011902 194.041977,449.009949 
	C194.045532,452.088043 194.829758,455.158539 194.950806,458.244293 
	C195.534302,473.118225 208.060196,479.813782 219.496964,479.908081 
	C251.493622,480.171906 283.495850,480.206421 315.491821,479.902252 
	C329.010498,479.773743 338.913574,470.395813 340.000000,456.257751 
M21.000000,358.504761 
	C21.000000,390.667847 21.098242,422.831421 20.953169,454.993835 
	C20.892462,468.452606 31.223665,479.908783 45.893761,479.963593 
	C77.556511,480.081879 109.221611,480.156189 140.881500,479.832977 
	C145.674911,479.784058 150.839676,478.281860 155.145309,476.097198 
	C164.310226,471.446991 166.607208,462.521881 166.929886,453.131256 
	C167.250183,443.809967 167.084045,434.468170 166.984100,425.136932 
	C166.695892,398.229797 166.587463,371.316650 165.867249,344.420380 
	C165.602875,334.547150 155.174957,325.039215 145.180252,325.022247 
	C111.017426,324.964233 76.854019,324.910767 42.691879,325.074219 
	C35.738216,325.107483 30.333771,328.445007 25.870380,334.092346 
	C20.192574,341.276215 21.011795,349.379669 21.000000,358.504761 
z"/>
<path fill="#000000" opacity="1.000000" stroke="none" 
	d="
M513.000000,461.531342 
	C510.014130,466.155365 507.214142,470.461578 503.995087,474.427673 
	C500.021118,479.323944 493.942902,479.812164 488.447632,479.860992 
	C456.473663,480.144897 424.494812,480.155548 392.520020,479.925446 
	C379.238281,479.829834 367.848694,469.505981 367.892090,455.232361 
	C368.121887,379.622070 368.080963,304.010498 367.916290,228.399872 
	C367.890350,216.495346 378.649750,205.023102 391.417145,205.010681 
	C424.226288,204.978745 457.035858,204.911514 489.844452,205.051468 
	C500.305878,205.096100 509.164032,211.728470 512.643799,221.897766 
	C513.000000,301.687561 513.000000,381.375122 513.000000,461.531342 
z"/>
<path fill="#000000" opacity="1.000000" stroke="none" 
	d="
M0.999999,240.466858 
	C4.909976,236.349380 8.502707,232.240494 12.854417,229.227982 
	C15.285422,227.545074 18.955343,227.246246 22.104630,227.091949 
	C28.421803,226.782410 34.793945,227.390808 41.091263,226.921188 
	C55.611523,225.838333 70.133209,224.616531 84.593056,222.926910 
	C98.616211,221.288315 112.668571,219.539169 126.515839,216.848938 
	C143.096222,213.627731 159.535278,209.606125 175.924561,205.489395 
	C210.036270,196.921036 243.341202,185.629669 275.468994,171.508362 
	C303.382355,159.239441 330.512909,145.098236 357.515808,130.884750 
	C372.710144,122.886894 386.969940,113.106705 401.599243,104.046295 
	C406.328003,101.117607 406.425964,99.820389 402.359924,95.884308 
	C395.940796,89.670387 389.317139,83.665482 382.967987,77.382240 
	C377.836578,72.304123 376.813599,68.329521 380.103119,64.447639 
	C381.872406,62.359749 384.863861,60.788761 387.585205,60.106430 
	C415.814209,53.028393 444.096100,46.160690 472.373962,39.278229 
	C479.878662,37.451672 487.401917,35.692234 494.949860,34.054985 
	C501.235229,32.691597 506.646729,39.708439 504.946594,47.122368 
	C499.694366,70.026314 494.279358,92.893036 489.060089,115.804405 
	C486.234100,128.209839 483.619202,140.664551 481.034332,153.123016 
	C480.228149,157.008621 478.636383,160.634293 474.901001,161.817825 
	C470.926575,163.077072 467.445953,161.227005 464.422211,158.030930 
	C457.439392,150.650146 450.127197,143.579971 442.917206,136.415405 
	C437.798828,131.329330 437.232025,131.535660 431.188843,135.240891 
	C410.074921,148.186432 389.093964,161.380142 367.577637,173.627747 
	C351.652588,182.692719 335.270691,191.095032 318.555634,198.596848 
	C297.528717,208.033844 276.096100,216.619232 254.580933,224.903015 
	C227.457993,235.345901 199.601196,243.598190 171.302979,250.210663 
	C155.607346,253.878296 139.788803,257.102631 123.916023,259.906006 
	C108.257088,262.671600 92.469109,264.719788 76.717438,266.938507 
	C72.338661,267.555267 67.892967,267.836212 63.468979,267.966858 
	C49.221390,268.387695 34.969604,268.910675 20.719437,268.910706 
	C11.812000,268.910736 5.798100,263.750916 1.343681,256.080322 
	C1.000000,250.977905 1.000000,245.955811 0.999999,240.466858 
z"/>
<path fill="#000000" opacity="1.000000" stroke="none" 
	d="
M340.000000,456.724762 
	C338.913574,470.395813 329.010498,479.773743 315.491821,479.902252 
	C283.495850,480.206421 251.493622,480.171906 219.496964,479.908081 
	C208.060196,479.813782 195.534302,473.118225 194.950806,458.244293 
	C194.829758,455.158539 194.045532,452.088043 194.041977,449.009949 
	C193.983032,398.011902 193.953766,347.013580 194.086548,296.015778 
	C194.097336,291.872375 194.921371,287.612396 196.084015,283.614990 
	C198.626923,274.872009 208.280273,268.008911 217.420502,268.005219 
	C250.419312,267.991974 283.418121,267.989899 316.416931,268.005005 
	C329.446930,268.010986 339.994324,278.643829 339.996368,291.763885 
	C340.004974,346.595184 340.000000,401.426453 340.000000,456.724762 
z"/>
<path fill="#000000" opacity="1.000000" stroke="none" 
	d="
M21.000000,358.006104 
	C21.011795,349.379669 20.192574,341.276215 25.870380,334.092346 
	C30.333771,328.445007 35.738216,325.107483 42.691879,325.074219 
	C76.854019,324.910767 111.017426,324.964233 145.180252,325.022247 
	C155.174957,325.039215 165.602875,334.547150 165.867249,344.420380 
	C166.587463,371.316650 166.695892,398.229797 166.984100,425.136932 
	C167.084045,434.468170 167.250183,443.809967 166.929886,453.131256 
	C166.607208,462.521881 164.310226,471.446991 155.145309,476.097198 
	C150.839676,478.281860 145.674911,479.784058 140.881500,479.832977 
	C109.221611,480.156189 77.556511,480.081879 45.893761,479.963593 
	C31.223665,479.908783 20.892462,468.452606 20.953169,454.993835 
	C21.098242,422.831421 21.000000,390.667847 21.000000,358.006104 
z"/>
</svg>